<?xml version="1.0" encoding="utf-8"?>
<!-- Generator: Adobe Illustrator 15.0.0, SVG Export Plug-In . SVG Version: 6.00 Build 0)  -->
<!DOCTYPE svg PUBLIC "-//W3C//DTD SVG 1.1//EN" "http://www.w3.org/Graphics/SVG/1.1/DTD/svg11.dtd">
<svg version="1.1" id="Layer_1" xmlns="http://www.w3.org/2000/svg" xmlns:xlink="http://www.w3.org/1999/xlink" x="0px" y="0px"
	 width="800px" height="600px" viewBox="0 0 800 600" enable-background="new 0 0 800 600" xml:space="preserve">
<g id="Layer_1_1_">
</g>
<g>
	<polygon points="94.962,312.04 67.326,312.037 50.43,312.035 51.62,328.825 53.449,354.648 71.002,354.636 70.084,328.822 
		95.998,328.816 	"/>
	<polygon points="142.061,281.528 118.977,281.513 102.502,281.5 106.358,354.608 124.439,354.596 122.022,298.503 141.941,298.512 
			"/>
	<path d="M-4.5,244.5v148h809v-148H-4.5z M39.565,378.734l-7.252-121.211l122.582,0.156l5.846,120.487L39.565,378.734z
		 M178.031,257.709l75.723,0.096l0.649,22.384l-75.357-0.059L178.031,257.709z M208.429,378.061l-26.058,0.034l-2.083-70.073
		l-0.789-0.002l25.193,0.006l50.522-0.323l0.203,21.697l-48.814,0.346L208.429,378.061z M303.763,377.396l-25.965,0.035
		l-0.548-119.6l26.54,0.035L303.763,377.396z M383.084,377.302l-26.335,0.034l0.833-96.413l-31.586-0.02l-0.315-23.002l59.444,0.071
		L383.084,377.302z M469.158,280.769L437,280.743l-3.875,95.896l-26.46,0.035l3.75-119.27l59.137,0.078L469.158,280.769z
		 M581.575,377.048l-26.517,0.033l2.192-48.419l-42.99,0.01l-2.409,48.466l-26.399,0.034l4.63-119.065l27.83,0.035l-2.248,46.833
		l43.051,0.013l3.036-46.789l27.437,0.051L581.575,377.048z M628.424,377.985l-25.631,0.034l7.832-119.494l26.312,0.052
		L628.424,377.985z M701.188,308.375c20.385,7.827,28.062,19.062,26.812,34.938c-1.553,19.72-16.875,35.938-47.072,35.938
		c-13.366,0-26.366-3.03-32.771-6.661l6.654-21.962c6.951,3.668,17.724,7.325,29.06,7.315c12.195-0.01,18.358-5.078,18.881-12.78
		c0.499-7.371-4.194-11.594-18.059-16.707c-19.242-6.899-31.458-17.913-30.469-35.435c1.172-20.722,19.188-35.745,47.504-35.708
		c13.523,0.018,22.842,4.201,29.711,7.479l-7.548,21.526c-4.606-2.341-12.533-6.141-24.224-6.151
		c-11.695-0.01-17.11,4.54-17.5,10.833C681.687,298.705,686.241,302.482,701.188,308.375z"/>
	<polygon points="93.142,281.493 48.263,281.459 49.469,298.475 94.192,298.493 	"/>
</g>
</svg>
