<?xml version="1.0" encoding="utf-8"?>
<!-- Generator: Adobe Illustrator 15.0.0, SVG Export Plug-In . SVG Version: 6.00 Build 0)  -->
<!DOCTYPE svg PUBLIC "-//W3C//DTD SVG 1.1//EN" "http://www.w3.org/Graphics/SVG/1.1/DTD/svg11.dtd">
<svg version="1.1" id="Layer_1" xmlns="http://www.w3.org/2000/svg" xmlns:xlink="http://www.w3.org/1999/xlink" x="0px" y="0px"
	 width="675px" height="423.319px" viewBox="0 0 675 423.319" enable-background="new 0 0 675 423.319" xml:space="preserve">
<path fill="#8A6EB1" d="M281.694,181.731h13.608v59.943h-13.608V181.731z M305.483,193.117h16.099v48.558h13.607v-48.558v-11.385
	h-29.706V193.117z M347.062,193.117v48.558h13.608v-48.558h16.364v-11.385h-29.973V193.117z M423.145,204.766h-22.322v-23.034
	h-13.607v59.943h13.607v-25.079h22.322v25.079h13.52v-59.943h-13.52V204.766z M447.495,241.675h13.606v-59.943h-13.606V241.675z
	 M496.141,206.101c-7.736-2.935-11.115-4.624-11.115-8.448c0-3.114,2.845-5.782,8.715-5.782c5.869,0,10.139,1.69,12.54,2.845
	l3.023-10.938c-3.557-1.601-8.537-3.023-15.298-3.023c-14.14,0-22.678,7.825-22.678,18.052c0,8.717,6.492,14.229,16.453,17.698
	c7.204,2.581,10.049,4.715,10.049,8.448c0,3.914-3.29,6.494-9.516,6.494c-5.78,0-11.384-1.868-15.03-3.735l-2.757,11.205
	c3.38,1.868,10.139,3.646,16.987,3.646c16.453,0,24.19-8.538,24.19-18.586C511.705,215.528,506.725,210.014,496.141,206.101z
	 M163.294,181.731h59.944v59.943h-59.944V181.731z M197.363,229.521h8.316v-27.885h9.785v-8.316h-9.785h-8.316v8.316V229.521z
	 M171.071,201.637h21.215v-8.316h-21.215V201.637z M171.071,229.521h8.314v-12.9h12.901v-8.314h-12.901h-8.314v8.314V229.521z
	 M233.834,206.545v11.028v24.102h13.427v-24.102h23.588v-11.028h-23.588H233.834z M233.834,192.94h37.015v-11.208h-37.015V192.94z"
	/>
</svg>
